<svg width="155" height="155" viewBox="0 0 155 155" fill="none" xmlns="http://www.w3.org/2000/svg">
    <path
        d="M70.435 8.74154C72.6901 2.64722 81.3099 2.64721 83.565 8.74154L85.8763 14.9879C86.5853 16.904 88.096 18.4147 90.012 19.1237L96.2585 21.435C102.353 23.6901 102.353 32.3099 96.2585 34.565L90.0121 36.8763C88.096 37.5853 86.5853 39.096 85.8763 41.012L83.565 47.2585C81.3099 53.3528 72.6901 53.3528 70.435 47.2585L68.1237 41.0121C67.4147 39.096 65.904 37.5853 63.988 36.8763L57.7415 34.565C51.6472 32.3099 51.6472 23.6901 57.7415 21.435L63.9879 19.1237C65.904 18.4147 67.4147 16.904 68.1237 14.988L70.435 8.74154Z"
        fill="black" />
    <path
        d="M70.435 57.7415C72.6901 51.6472 81.3099 51.6472 83.565 57.7415L85.8763 63.9879C86.5853 65.904 88.096 67.4147 90.012 68.1237L96.2585 70.435C102.353 72.6901 102.353 81.3099 96.2585 83.565L90.0121 85.8763C88.096 86.5853 86.5853 88.096 85.8763 90.012L83.565 96.2585C81.3099 102.353 72.6901 102.353 70.435 96.2585L68.1237 90.0121C67.4147 88.096 65.904 86.5853 63.988 85.8763L57.7415 83.565C51.6472 81.3099 51.6472 72.6901 57.7415 70.435L63.9879 68.1237C65.904 67.4147 67.4147 65.904 68.1237 63.988L70.435 57.7415Z"
        fill="black" />
    <path
        d="M70.435 106.742C72.6901 100.647 81.3099 100.647 83.565 106.742L85.8763 112.988C86.5853 114.904 88.096 116.415 90.012 117.124L96.2585 119.435C102.353 121.69 102.353 130.31 96.2585 132.565L90.0121 134.876C88.096 135.585 86.5853 137.096 85.8763 139.012L83.565 145.258C81.3099 151.353 72.6901 151.353 70.435 145.258L68.1237 139.012C67.4147 137.096 65.904 135.585 63.988 134.876L57.7415 132.565C51.6472 130.31 51.6472 121.69 57.7415 119.435L63.9879 117.124C65.904 116.415 67.4147 114.904 68.1237 112.988L70.435 106.742Z"
        fill="black" />
</svg>