<svg style="display: none" xmlns="http://www.w3.org/2000/svg" viewBox="0 0 300 300" width="300" height="300">
    <defs>
        <path id="star"
            d="M49.8409 23.0446C51.7976 16.3185 61.3268 16.3185 63.2835 23.0446L71.075 49.8265C71.636 51.7549 72.9983 53.3494 74.8154 54.2046L100.105 66.1075C105.464 68.6296 105.464 76.2525 100.105 78.7746L74.8154 90.6775C72.9983 91.5328 71.636 93.1273 71.075 95.0557L63.2836 121.838C61.3268 128.564 51.7976 128.564 49.8409 121.838L42.0494 95.0557C41.4884 93.1273 40.1261 91.5327 38.309 90.6775L13.0191 78.7746C7.6603 76.2525 7.66032 68.6296 13.0191 66.1075L38.309 54.2046C40.1261 53.3494 41.4884 51.7549 42.0494 49.8265L49.8409 23.0446Z" />

        <path id="star2"
            d="M49.8409 35.0446C51.7976 28.3185 61.3268 28.3185 63.2835 35.0446L69.075 53.8265C69.636 55.7549 70.9983 57.3494 72.8154 58.2046L92.1053 66.1075C97.4641 68.6296 97.4641 76.2525 92.1053 78.7746L72.8154 85.6775C70.9983 86.5328 69.636 88.1273 69.075 90.0557L63.2836 107.838C61.3268 114.564 51.7976 114.564 49.8409 107.838L44.0494 90.0557C43.4884 88.1273 42.1261 86.5327 40.309 85.6775L21.0191 78.7746C15.6603 76.2525 15.6603 68.6296 21.0191 66.1075L40.309 58.2046C42.1261 57.3494 43.4884 55.7549 44.0494 53.8265L49.8409 35.0446Z" />

        <path id="collapsed"
            d="M49.2601 38.8818C49.6452 38.2973 49.9186 37.6457 50.2049 37.007C52.6265 31.6049 60.4983 31.6049 62.9199 37.0069C63.2062 37.6457 63.4795 38.2973 63.8646 38.8818L70.4942 48.9447C70.8793 49.5293 71.151 50.1793 71.4453 50.8144C71.8812 51.7549 72.5195 52.5845 73.3108 53.245C74.2122 53.9975 75.1783 54.7018 75.8703 55.6503L82.4452 64.6619C83.1373 65.6104 84.1047 66.3138 85.0116 67.0596C88.3549 69.8094 88.3549 75.0729 85.0116 77.8227C84.1047 78.5685 83.1373 79.2718 82.4452 80.2204L75.8703 89.2319C75.1783 90.1804 74.2122 90.8848 73.3108 91.6372C72.5949 92.2349 72.0041 92.9709 71.5753 93.8022C71.166 94.5957 70.7922 95.4169 70.2415 96.1197L64.1174 103.936C63.5667 104.639 63.192 105.46 62.794 106.259C60.2801 111.306 52.8446 111.306 50.3308 106.259C49.9327 105.46 49.5581 104.639 49.0074 103.936L42.8833 96.1197C42.3326 95.4169 41.9588 94.5957 41.5495 93.8022C41.1017 92.934 40.4772 92.1698 39.718 91.5586C38.8651 90.8718 37.9578 90.2282 37.2832 89.3656L30.0261 80.0866C29.3514 79.224 28.4435 78.5812 27.5854 77.901C24.1128 75.148 24.1128 69.7342 27.5854 66.9813C28.4435 66.301 29.3515 65.6582 30.0261 64.7957L37.2832 55.5166C37.9578 54.654 38.8651 54.0104 39.7181 53.3237C40.5538 52.6508 41.2262 51.7926 41.6795 50.8144C41.9738 50.1793 42.2454 49.5293 42.6305 48.9447L49.2601 38.8818Z" />

        <path id="collapsedh"
            d="M88.8884 64.6056C89.4719 64.9924 90.1226 65.2676 90.7605 65.5558C96.1555 67.9932 96.1325 75.865 90.7234 78.2708C90.0838 78.5552 89.4314 78.8266 88.8458 79.21L78.7635 85.8102C78.1779 86.1936 77.527 86.4634 76.891 86.7558C75.9493 87.1889 75.1179 87.8248 74.455 88.6142C73.6999 89.5133 72.9928 90.4774 72.0422 91.1667L63.0115 97.7152C62.0609 98.4045 61.3548 99.3699 60.6063 100.275C57.8467 103.61 52.5833 103.594 49.8433 100.243C49.1001 99.334 48.3996 98.3645 47.4531 97.6697L38.4608 91.0685C37.5143 90.3737 36.8128 89.4055 36.063 88.5019C35.4674 87.7843 34.7332 87.1914 33.9031 86.7601C33.1108 86.3485 32.2907 85.9723 31.5895 85.4196L23.7911 79.2726C23.0899 78.7199 22.2696 78.3428 21.4716 77.9424C16.432 75.4139 16.4538 67.9784 21.508 65.4793C22.3084 65.0836 23.1308 64.7113 23.8353 64.1627L31.6694 58.0614C32.3739 57.5128 33.1961 57.1414 33.9909 56.7344C34.8603 56.2892 35.6264 55.667 36.2398 54.9096C36.9291 54.0586 37.5753 53.1532 38.4399 52.4811L47.7401 45.2512C48.6046 44.5791 49.25 43.673 49.9328 42.8169C52.6959 39.3524 58.1097 39.3682 60.8525 42.8488C61.5302 43.7089 62.1704 44.6187 63.031 45.2959L72.2888 52.5801C73.1494 53.2572 73.7903 54.1664 74.4746 55.0213C75.145 55.859 76.0012 56.5339 76.978 56.9901C77.6123 57.2862 78.2616 57.5598 78.845 57.9466L88.8884 64.6056Z" />

        <path id="circle"
            d="M46.4996 48.2122C48.5996 47.4504 50.0282 45.5373 51.6082 43.958C54.2796 41.2879 58.845 41.2879 61.5164 43.958C63.0963 45.5372 64.525 47.4504 66.625 48.2121L67.7828 48.6322C69.8519 49.3827 71.2819 51.2481 72.8342 52.8084C73.9444 53.9242 75.1909 54.9764 75.8796 56.3917L78.42 61.6131C79.1189 63.0496 80.3864 64.1095 81.5138 65.2413C84.249 67.9873 84.1861 72.6145 81.325 75.2739C80.2731 76.2516 79.1171 77.1684 78.4033 78.4145L75.9081 82.7702C75.1969 84.0116 74.0433 84.9314 73.0011 85.9115C71.3009 87.5104 69.737 89.4754 67.5101 90.1741L66.862 90.3774C64.6267 91.0786 63.0807 93.0724 61.3755 94.6787C58.7344 97.1666 54.3901 97.1666 51.7491 94.6787C50.0438 93.0724 48.4978 91.0786 46.2626 90.3774L45.6279 90.1783C43.3926 89.477 41.8204 87.4986 40.1094 85.8984C40.0632 85.8551 40.0164 85.8125 39.969 85.7706C38.9932 84.9063 37.933 84.0982 37.2232 83.0049L34.0859 78.1726C33.3761 77.0793 32.3142 76.2733 31.3325 75.4158C28.2665 72.7378 28.1986 67.8768 31.129 65.1022C32.2001 64.088 33.3835 63.1374 34.0958 61.8457L37.2133 56.1918C37.9256 54.9001 39.1063 53.9458 40.1713 52.9252C40.1979 52.8996 40.2244 52.8739 40.2506 52.8479C41.8388 51.277 43.2909 49.3761 45.3909 48.6144L46.4996 48.2122Z" />

        <path id="flower"
            d="M41.7633 35.9242C44.5831 35.6127 46.769 33.4736 48.5313 31.2504C53.0183 25.5902 61.9844 25.5832 66.4825 31.2293C68.2587 33.4589 70.4619 35.6043 73.2969 35.9022L83.8101 37.0071C86.645 37.3051 88.9783 39.3306 90.3689 41.819C90.8872 42.7467 91.4758 43.6616 92.1087 44.4859C93.754 46.6285 95.3677 49.1406 95.3677 51.8421L95.3677 59.0468C95.3677 61.7483 97.0832 64.0802 98.9222 66.0592C103.026 70.4755 103.026 77.5798 98.9221 81.9961C97.0832 83.9751 95.3676 86.307 95.3676 89.0085L95.3677 96.5772C95.3677 99.2787 93.7249 101.715 91.9154 103.721C91.566 104.108 91.2315 104.517 90.9162 104.939C89.0499 107.439 86.3514 109.591 83.2315 109.591L73.8755 109.591C70.7556 109.591 68.1908 111.853 66.1278 114.194C61.5566 119.38 53.0122 119.266 48.6148 113.854C46.7837 111.6 44.5116 109.43 41.618 109.187L32.3056 108.404C29.412 108.161 26.9267 106.022 24.6946 104.164C24.2056 103.757 23.6816 103.375 23.1429 103.019C21.0008 101.602 19.4155 99.4023 19.28 96.8375L18.8524 88.7482C18.7168 86.1834 17.0431 84.0219 15.2528 82.1802C10.9144 77.7173 10.9157 70.3322 15.2568 65.871C17.0459 64.0324 18.7186 61.8747 18.8571 59.313L19.2753 51.576C19.4138 49.0143 20.98 46.7121 22.7615 44.866C23.6927 43.9011 24.5944 42.784 25.3664 41.6551C26.9678 39.3133 29.3405 37.2967 32.1604 36.9851L41.7633 35.9242Z" />
        <path id="peacock"
            d="M45.7208 23.9018C48.2561 23.3743 50.0898 21.2054 52.0926 19.5639C54.6781 17.4447 58.6137 17.4793 61.1552 19.6675C63.0525 21.3012 64.7826 23.4104 67.215 24.004L88.0531 29.089C89.9227 29.5453 91.2882 31.0878 92.5677 32.5253C93.7434 33.846 94.9881 35.246 95.2773 36.9904L99.5044 62.4834C99.8807 64.7527 101.579 66.5494 102.889 68.4403C105.198 71.7734 104.27 76.8145 100.105 78.7746L74.8154 90.6775C72.9983 91.5328 71.636 93.1273 71.075 95.0557L63.2836 121.838C61.3268 128.564 51.7976 128.564 49.8409 121.838L42.0494 95.0557C41.4884 93.1273 40.1261 91.5327 38.309 90.6775L13.0191 78.7746C8.86187 76.818 7.92974 71.7917 10.2226 68.4584C11.5332 66.5532 13.2386 64.742 13.6057 62.4588L17.8686 35.9442C18.1442 34.2299 19.3608 32.8504 20.5242 31.5616C21.8269 30.1183 23.2393 28.5789 25.1428 28.1829L45.7208 23.9018Z" />
        <path id="violin"
            d="M46.7593 24.3365C48.7084 23.5194 50.0142 21.6962 51.4603 20.1551C54.1888 17.2475 59.0821 17.282 61.7592 20.2586C63.1185 21.77 64.3455 23.5315 66.1933 24.3787L75.5632 28.6748C77.1583 29.4062 78.2441 30.8956 79.3448 32.2621C80.5905 33.8085 82.0093 35.3742 82.3341 37.3331L86.5044 62.4834C86.8807 64.7527 88.5795 66.5494 89.8893 68.4403C91.2157 70.3552 91.4738 72.8339 90.6635 74.9682C89.5439 77.9173 87.4815 80.9296 88.024 84.0371L91.4376 103.592C92.0354 107.016 89.1747 110.178 86.578 112.489C85.3827 113.553 84.4501 114.35 82.9416 114.883L66.6677 120.64C64.5431 121.392 63.0938 123.319 61.4915 124.904C58.8027 127.564 54.2234 127.541 51.5662 124.837C50.024 123.268 48.6302 121.38 46.5722 120.601L31.5566 114.921C30.078 114.362 29.1712 113.566 27.9944 112.51C25.3828 110.167 22.4787 107.007 23.0358 103.543L26.1826 83.9761C26.6779 80.8959 24.6255 77.9417 23.4874 75.0369C22.6478 72.894 22.8929 70.3915 24.2226 68.4584C25.5332 66.5532 27.2386 64.742 27.6057 62.4588L31.8143 36.2816C32.1239 34.3562 33.5103 32.8134 34.7454 31.3042C35.8741 29.925 37.0045 28.4261 38.6481 27.737L46.7593 24.3365Z" />
    </defs>
</svg>